<svg width="500" height="500" viewBox="0 0 500 500" fill="none" xmlns="http://www.w3.org/2000/svg">
<circle cx="250" cy="250" r="250" fill="#067E82"/>
<path d="M220 144.219C220 177.477 188.884 144.219 150.5 144.219C112.116 144.219 81 177.477 81 144.219C81 110.961 112.116 84 150.5 84C188.884 84 220 110.961 220 144.219Z" fill="white"/>
<path d="M283 144.219C283 177.477 314.116 144.219 352.5 144.219C390.884 144.219 422 177.477 422 144.219C422 110.961 390.884 84 352.5 84C314.116 84 283 110.961 283 144.219Z" fill="white"/>
<path d="M500 269.499C436.5 343 393.5 321.5 250 296C107 321 44 341.5 0 269.499C120.5 256.499 126.5 173.999 250 207.999C376.5 176.999 392.5 269.499 500 269.499Z" fill="white"/>
</svg>
