<svg width="488" height="311" viewBox="0 0 488 311" fill="none" xmlns="http://www.w3.org/2000/svg">
<path d="M487.808 119.971V101.78C487.808 98.3107 486.43 94.9839 483.977 92.531C481.525 90.0781 478.198 88.7001 474.729 88.7001H428.563C426.845 88.7001 425.144 88.3618 423.558 87.7045C421.971 87.0472 420.529 86.0838 419.314 84.8693C418.1 83.6547 417.136 82.2128 416.479 80.626C415.822 79.0391 415.483 77.3383 415.483 75.6207V57.4295C415.483 55.7119 415.822 54.0111 416.479 52.4242C417.136 50.8373 418.1 49.3955 419.314 48.1809C420.529 46.9664 421.971 46.003 423.558 45.3457C425.144 44.6884 426.845 44.3501 428.563 44.3501H430.02C433.489 44.3501 436.816 42.9721 439.269 40.5192C441.722 38.0663 443.1 34.7395 443.1 31.2706V13.0795C443.1 9.61057 441.722 6.28376 439.269 3.83089C436.816 1.37801 433.489 0 430.02 0H88.1133C84.6444 0 81.3176 1.37801 78.8648 3.83089C76.4119 6.28376 75.0339 9.61057 75.0339 13.0795V31.2706C75.0339 34.7395 76.4119 38.0663 78.8648 40.5192C81.3176 42.9721 84.6444 44.3501 88.1133 44.3501C91.5822 44.3501 94.909 45.7281 97.3619 48.1809C99.8148 50.6338 101.193 53.9606 101.193 57.4295V75.6207C101.193 79.0896 99.8148 82.4164 97.3619 84.8693C94.909 87.3221 91.5822 88.7001 88.1133 88.7001H37.534C34.0651 88.7001 30.7383 90.0781 28.2854 92.531C25.8325 94.9839 24.4545 98.3107 24.4545 101.78V119.971C24.4545 123.44 25.8325 126.766 28.2854 129.219C30.7383 131.672 34.0651 133.05 37.534 133.05H57.3805C59.0982 133.05 60.799 133.389 62.3858 134.046C63.9727 134.703 65.4146 135.667 66.6291 136.881C67.8436 138.096 68.8071 139.537 69.4644 141.124C70.1217 142.711 70.46 144.412 70.46 146.13V164.321C70.46 166.039 70.1217 167.739 69.4644 169.326C68.8071 170.913 67.8436 172.355 66.6291 173.569C65.4146 174.784 63.9727 175.747 62.3858 176.405C60.799 177.062 59.0982 177.4 57.3805 177.4H57.3325C53.8637 177.4 50.5369 178.778 48.084 181.231C45.6311 183.684 44.2532 187.011 44.2532 190.48V208.671C44.2531 210.388 44.5915 212.089 45.2488 213.676C45.9061 215.263 46.8695 216.705 48.084 217.919C49.2986 219.134 50.7404 220.097 52.3273 220.755C53.9142 221.412 55.615 221.75 57.3326 221.75H60.204C63.6729 221.75 66.9997 223.128 69.4526 225.581C71.9054 228.034 73.2834 231.361 73.2834 234.83V253.021C73.2834 256.49 71.9054 259.817 69.4526 262.27C66.9997 264.722 63.6729 266.1 60.204 266.1H13.0795C9.61057 266.1 6.28376 267.478 3.83089 269.931C1.37801 272.384 0 275.711 0 279.18V297.371C0 300.84 1.37801 304.167 3.83089 306.62C6.28376 309.073 9.61057 310.451 13.0795 310.451H437.042C440.511 310.451 443.838 309.073 446.291 306.62C448.744 304.167 450.122 300.84 450.122 297.371V279.18C450.122 275.711 448.744 272.384 446.291 269.931C443.838 267.478 440.511 266.1 437.042 266.1H425.702C422.233 266.1 418.906 264.722 416.453 262.27C414 259.817 412.622 256.49 412.622 253.021V234.83C412.622 231.361 414 228.034 416.453 225.581C418.906 223.128 422.233 221.75 425.702 221.75H452.442C454.159 221.75 455.86 221.412 457.447 220.755C459.034 220.097 460.476 219.134 461.69 217.919C462.905 216.705 463.868 215.263 464.526 213.676C465.183 212.089 465.521 210.388 465.521 208.671V190.48C465.521 187.011 464.143 183.684 461.69 181.231C459.237 178.778 455.911 177.4 452.442 177.4H444.33C442.613 177.4 440.912 177.062 439.325 176.405C437.738 175.747 436.296 174.784 435.082 173.569C433.867 172.355 432.904 170.913 432.246 169.326C431.589 167.739 431.251 166.039 431.251 164.321V146.13C431.251 144.412 431.589 142.711 432.246 141.124C432.904 139.537 433.867 138.096 435.082 136.881C436.296 135.667 437.738 134.703 439.325 134.046C440.912 133.389 442.613 133.05 444.33 133.05H474.729C478.198 133.05 481.525 131.672 483.977 129.219C486.43 126.766 487.808 123.44 487.808 119.971Z" fill="#DBE8EC"/>
<path d="M296.305 131.022H136.465V276.462H296.305V131.022Z" fill="#409CB5"/>
<path d="M381.265 131.022H296.305V276.462H381.265V131.022Z" fill="#3086A3"/>
<path d="M381.265 131.382H296.305L325.406 91.6886C325.685 91.3086 326.049 90.9995 326.469 90.7865C326.89 90.5734 327.354 90.4624 327.826 90.4624H405.346C405.9 90.4624 406.444 90.616 406.916 90.9062C407.388 91.1963 407.771 91.6117 408.022 92.1062C408.272 92.6007 408.381 93.1549 408.336 93.7074C408.291 94.2599 408.093 94.7891 407.765 95.2362L381.265 131.382Z" fill="#25788E"/>
<path d="M136.861 131.382H221.821L192.719 91.6886C192.441 91.3086 192.077 90.9995 191.656 90.7865C191.236 90.5734 190.771 90.4624 190.3 90.4624H112.78C112.225 90.4624 111.682 90.616 111.21 90.9062C110.737 91.1963 110.354 91.6117 110.104 92.1062C109.853 92.6007 109.745 93.1549 109.79 93.7074C109.835 94.2599 110.033 94.7891 110.36 95.2362L136.861 131.382Z" fill="#3086A3"/>
<path d="M429.197 184.383L381.265 131.382V189.342H426.926C427.5 189.342 428.063 189.177 428.546 188.867C429.03 188.557 429.414 188.114 429.653 187.592C429.892 187.069 429.976 186.489 429.896 185.92C429.815 185.351 429.572 184.818 429.197 184.383Z" fill="#25788E"/>
<path d="M276.651 53.0166H165.797V131.383H276.651V53.0166Z" fill="#303841"/>
<path d="M217.984 136.22H187.486C186.897 136.22 186.319 136.065 185.809 135.771C185.299 135.476 184.876 135.053 184.581 134.543C184.287 134.033 184.132 133.455 184.132 132.866C184.132 132.277 184.287 131.699 184.581 131.189L199.83 104.777L215.079 78.3649C215.374 77.8551 215.797 77.4317 216.307 77.1373C216.817 76.843 217.395 76.688 217.984 76.688C218.572 76.688 219.151 76.843 219.661 77.1373C220.171 77.4317 220.594 77.8551 220.888 78.3649L236.137 104.777L251.386 131.189C251.681 131.699 251.836 132.277 251.836 132.866C251.836 133.455 251.681 134.033 251.386 134.543C251.092 135.053 250.669 135.476 250.159 135.771C249.649 136.065 249.07 136.22 248.482 136.22H217.984Z" fill="#DBE8EC"/>
<path d="M219.661 93.2037C219.661 92.277 218.91 91.5259 217.984 91.5259C217.057 91.5259 216.306 92.277 216.306 93.2037V118.216C216.306 119.142 217.057 119.894 217.984 119.894C218.91 119.894 219.661 119.142 219.661 118.216V93.2037Z" fill="#409CB5"/>
<path d="M221.978 126.856C222.197 124.649 220.586 122.684 218.379 122.466C216.173 122.247 214.208 123.858 213.989 126.065C213.771 128.271 215.382 130.236 217.588 130.455C219.794 130.673 221.76 129.062 221.978 126.856Z" fill="#409CB5"/>
<path d="M244.571 189.342H92.6553C92.0807 189.342 91.5183 189.177 91.0347 188.867C90.5512 188.557 90.167 188.114 89.9277 187.592C89.6885 187.069 89.6043 186.489 89.6851 185.92C89.7659 185.351 90.0084 184.818 90.3837 184.383L136.105 131.382H295.945L246.843 188.302C246.561 188.628 246.212 188.89 245.82 189.07C245.428 189.249 245.002 189.342 244.571 189.342Z" fill="#47ACC4"/>
<path d="M393.191 237.56C396.981 237.56 396.981 239.56 400.771 239.56C404.559 239.56 404.559 237.56 408.347 237.56C412.139 237.56 412.139 239.56 415.93 239.56C419.721 239.56 419.721 237.56 423.512 237.56" stroke="#B9D4DB" stroke-width="3" stroke-miterlimit="10" stroke-linecap="round"/>
<path d="M393.191 246.299C396.981 246.299 396.981 248.299 400.771 248.299C404.559 248.299 404.559 246.299 408.347 246.299C412.139 246.299 412.139 248.299 415.93 248.299C419.721 248.299 419.721 246.299 423.512 246.299" stroke="#B9D4DB" stroke-width="3" stroke-miterlimit="10" stroke-linecap="round"/>
<path d="M393.191 255.038C396.981 255.038 396.981 257.038 400.771 257.038C404.559 257.038 404.559 255.038 408.347 255.038C412.139 255.038 412.139 257.038 415.93 257.038C419.721 257.038 419.721 255.038 423.512 255.038" stroke="#B9D4DB" stroke-width="3" stroke-miterlimit="10" stroke-linecap="round"/>
<path d="M30.0876 191.342C33.8773 191.342 33.8773 193.342 37.667 193.342C41.4555 193.342 41.4555 191.342 45.2439 191.342C49.035 191.342 49.035 193.342 52.8261 193.342C56.6172 193.342 56.6171 191.342 60.4082 191.342" stroke="#B9D4DB" stroke-width="3" stroke-miterlimit="10" stroke-linecap="round"/>
<path d="M30.0876 200.082C33.8773 200.082 33.8773 202.082 37.667 202.082C41.4555 202.082 41.4555 200.082 45.2439 200.082C49.035 200.082 49.035 202.082 52.8261 202.082C56.6172 202.082 56.6171 200.082 60.4082 200.082" stroke="#B9D4DB" stroke-width="3" stroke-miterlimit="10" stroke-linecap="round"/>
<path d="M30.0876 208.821C33.8773 208.821 33.8773 210.821 37.667 210.821C41.4555 210.821 41.4555 208.821 45.2439 208.821C49.035 208.821 49.035 210.821 52.8261 210.821C56.6172 210.821 56.6171 208.821 60.4082 208.821" stroke="#B9D4DB" stroke-width="3" stroke-miterlimit="10" stroke-linecap="round"/>
<path d="M198.809 19.7681C202.599 19.7681 202.599 21.7681 206.389 21.7681C210.177 21.7681 210.177 19.7681 213.966 19.7681C217.757 19.7681 217.757 21.7681 221.548 21.7681C225.339 21.7681 225.339 19.7681 229.13 19.7681" stroke="#B9D4DB" stroke-width="3" stroke-miterlimit="10" stroke-linecap="round"/>
<path d="M198.809 28.5073C202.599 28.5073 202.599 30.5073 206.389 30.5073C210.177 30.5073 210.177 28.5073 213.966 28.5073C217.757 28.5073 217.757 30.5073 221.548 30.5073C225.339 30.5073 225.339 28.5073 229.13 28.5073" stroke="#B9D4DB" stroke-width="3" stroke-miterlimit="10" stroke-linecap="round"/>
<path d="M198.809 37.2466C202.599 37.2466 202.599 39.2466 206.389 39.2466C210.177 39.2466 210.177 37.2466 213.966 37.2466C217.757 37.2466 217.757 39.2466 221.548 39.2466C225.339 39.2466 225.339 37.2466 229.13 37.2466" stroke="#B9D4DB" stroke-width="3" stroke-miterlimit="10" stroke-linecap="round"/>
<path d="M102.609 303.396C109.767 303.396 115.569 297.593 115.569 290.436C115.569 283.278 109.767 277.476 102.609 277.476C95.4518 277.476 89.6494 283.278 89.6494 290.436C89.6494 297.593 95.4518 303.396 102.609 303.396Z" fill="#B9D4DB"/>
<path d="M112.013 262.969C115.725 262.969 118.733 259.961 118.733 256.249C118.733 252.538 115.725 249.529 112.013 249.529C108.302 249.529 105.293 252.538 105.293 256.249C105.293 259.961 108.302 262.969 112.013 262.969Z" fill="#B9D4DB"/>
<path d="M138.627 301.475C143.929 301.475 148.227 297.177 148.227 291.875C148.227 286.573 143.929 282.275 138.627 282.275C133.325 282.275 129.027 286.573 129.027 291.875C129.027 297.177 133.325 301.475 138.627 301.475Z" fill="#B9D4DB"/>
<path d="M89.8735 127.346C98.3897 127.346 105.293 120.442 105.293 111.926C105.293 103.41 98.3897 96.5063 89.8735 96.5063C81.3573 96.5063 74.4536 103.41 74.4536 111.926C74.4536 120.442 81.3573 127.346 89.8735 127.346Z" fill="#B9D4DB"/>
<path d="M60.4082 108.976C64.8441 108.976 68.4401 105.38 68.4401 100.944C68.4401 96.5077 64.8441 92.9116 60.4082 92.9116C55.9722 92.9116 52.3762 96.5077 52.3762 100.944C52.3762 105.38 55.9722 108.976 60.4082 108.976Z" fill="#B9D4DB"/>
<path d="M67.7856 78.2734C70.3444 78.2734 72.4187 76.1991 72.4187 73.6404C72.4187 71.0816 70.3444 69.0073 67.7856 69.0073C65.2269 69.0073 63.1526 71.0816 63.1526 73.6404C63.1526 76.1991 65.2269 78.2734 67.7856 78.2734Z" fill="#B9D4DB"/>
<path d="M93.4329 88.025C99.5669 88.025 104.539 83.0525 104.539 76.9185C104.539 70.7846 99.5669 65.812 93.4329 65.812C87.299 65.812 82.3264 70.7846 82.3264 76.9185C82.3264 83.0525 87.299 88.025 93.4329 88.025Z" fill="#B9D4DB"/>
<path d="M357.892 52.5619C366.408 52.5619 373.311 45.6582 373.311 37.1421C373.311 28.6259 366.408 21.7222 357.892 21.7222C349.375 21.7222 342.472 28.6259 342.472 37.1421C342.472 45.6582 349.375 52.5619 357.892 52.5619Z" fill="#B9D4DB"/>
<path d="M382.427 25.5058C386.863 25.5058 390.459 21.9098 390.459 17.4739C390.459 13.0379 386.863 9.44189 382.427 9.44189C377.991 9.44189 374.395 13.0379 374.395 17.4739C374.395 21.9098 377.991 25.5058 382.427 25.5058Z" fill="#B9D4DB"/>
<path d="M413.109 68.5C416.949 68.5 420.061 65.3876 420.061 61.5483C420.061 57.709 416.949 54.5967 413.109 54.5967C409.27 54.5967 406.158 57.709 406.158 61.5483C406.158 65.3876 409.27 68.5 413.109 68.5Z" fill="#B9D4DB"/>
<path d="M402.087 42.438C404.646 42.438 406.72 40.3637 406.72 37.8049C406.72 35.2462 404.646 33.1719 402.087 33.1719C399.528 33.1719 397.454 35.2462 397.454 37.8049C397.454 40.3637 399.528 42.438 402.087 42.438Z" fill="#B9D4DB"/>
<path d="M386.124 69.2516C392.258 69.2516 397.231 64.279 397.231 58.1451C397.231 52.0111 392.258 47.0386 386.124 47.0386C379.99 47.0386 375.018 52.0111 375.018 58.1451C375.018 64.279 379.99 69.2516 386.124 69.2516Z" fill="#B9D4DB"/>
</svg>
