<svg width="248" height="177" viewBox="0 0 248 177" fill="none" xmlns="http://www.w3.org/2000/svg">
<path d="M0 8C0 3.58172 3.58172 0 8 0H63.6531C65.7944 0 67.8464 0.858475 69.3498 2.38332L87.1502 20.4374C88.6536 21.9623 90.7056 22.8208 92.8469 22.8208H240C244.418 22.8208 248 26.4025 248 30.8208V169C248 173.418 244.418 177 240 177H8.00001C3.58173 177 0 173.418 0 169V8Z" fill="#00ADB5"/>
<path d="M0 52C0 47.5817 3.58172 44 8 44H64.275C66.3441 44 68.3327 43.1983 69.8233 41.7633L87.1767 25.0575C88.6673 23.6225 90.6559 22.8208 92.725 22.8208H240C244.418 22.8208 248 26.4025 248 30.8208V169C248 173.418 244.418 177 240 177H8.00001C3.58173 177 0 173.418 0 169V52Z" fill="#FFFEFE"/>
</svg>
